# xmcd
#
# Track frame offsets:
#	150
#	16826
#	32186
#	43920
#	62703
#	78679
#	93656
#	109859
#	125208
#	137067
#	152684
#	169723
#
# Disc length: 2522 seconds
#
# Revision: 1
# Processed by: cddbd v1.5.2PL0 Copyright (c) Steve Scherf et al.
# Submitted via: audiograbber 1.83.01
#
DISCID=a609d80c
DTITLE=pj proby and no comebacks - back in the saddle again
DYEAR=2009
DGENRE=Country
TTITLE0=corina corina - pj proby
TTITLE1=el rancho grande
TTITLE2=back in the saddle agian - pj proby
TTITLE3=deep in the heart of texas
TTITLE4=a four legged friend - pj proby
TTITLE5=tumbling tumbleweeds - pj proby
TTITLE6=the wayward wind
TTITLE7=south of the border - pj proby
TTITLE8=dont fence me in - pj proby and tine dean
TTITLE9=tall in the saddle
TTITLE10=cool water - pj proby
TTITLE11=ghost riders in the sky - pj proby
EXTD=
EXTT0=
EXTT1=
EXTT2=
EXTT3=
EXTT4=
EXTT5=
EXTT6=
EXTT7=
EXTT8=
EXTT9=
EXTT10=
EXTT11=
PLAYORDER=
